<svg xmlns="http://www.w3.org/2000/svg" xmlns:xlink="http://www.w3.org/1999/xlink" style="vertical-align: -4.695ex;" width="1689.5156" height="427.8" role="img" focusable="false" viewBox="0 -2575 18364.3 4650"><defs><path id="MJX-12-TEX-I-1D6FF" d="M195 609Q195 656 227 686T302 717Q319 716 351 709T407 697T433 690Q451 682 451 662Q451 644 438 628T403 612Q382 612 348 641T288 671T249 657T235 628Q235 584 334 463Q401 379 401 292Q401 169 340 80T205 -10H198Q127 -10 83 36T36 153Q36 286 151 382Q191 413 252 434Q252 435 245 449T230 481T214 521T201 566T195 609ZM112 130Q112 83 136 55T204 27Q233 27 256 51T291 111T309 178T316 232Q316 267 309 298T295 344T269 400L259 396Q215 381 183 342T137 256T118 179T112 130Z"/><path id="MJX-12-TEX-I-1D451" d="M366 683Q367 683 438 688T511 694Q523 694 523 686Q523 679 450 384T375 83T374 68Q374 26 402 26Q411 27 422 35Q443 55 463 131Q469 151 473 152Q475 153 483 153H487H491Q506 153 506 145Q506 140 503 129Q490 79 473 48T445 8T417 -8Q409 -10 393 -10Q359 -10 336 5T306 36L300 51Q299 52 296 50Q294 48 292 46Q233 -10 172 -10Q117 -10 75 30T33 157Q33 205 53 255T101 341Q148 398 195 420T280 442Q336 442 364 400Q369 394 369 396Q370 400 396 505T424 616Q424 629 417 632T378 637H357Q351 643 351 645T353 664Q358 683 366 683ZM352 326Q329 405 277 405Q242 405 210 374T160 293Q131 214 119 129Q119 126 119 118T118 106Q118 61 136 44T179 26Q233 26 290 98L298 109L352 326Z"/><path id="MJX-12-TEX-N-3D" d="M56 347Q56 360 70 367H707Q722 359 722 347Q722 336 708 328L390 327H72Q56 332 56 347ZM56 153Q56 168 72 173H708Q722 163 722 153Q722 140 707 133H70Q56 140 56 153Z"/><path id="MJX-12-TEX-N-30" d="M96 585Q152 666 249 666Q297 666 345 640T423 548Q460 465 460 320Q460 165 417 83Q397 41 362 16T301 -15T250 -22Q224 -22 198 -16T137 16T82 83Q39 165 39 320Q39 494 96 585ZM321 597Q291 629 250 629Q208 629 178 597Q153 571 145 525T137 333Q137 175 145 125T181 46Q209 16 250 16Q290 16 318 46Q347 76 354 130T362 333Q362 478 354 524T321 597Z"/><path id="MJX-12-TEX-N-2E" d="M78 60Q78 84 95 102T138 120Q162 120 180 104T199 61Q199 36 182 18T139 0T96 17T78 60Z"/><path id="MJX-12-TEX-N-34" d="M462 0Q444 3 333 3Q217 3 199 0H190V46H221Q241 46 248 46T265 48T279 53T286 61Q287 63 287 115V165H28V211L179 442Q332 674 334 675Q336 677 355 677H373L379 671V211H471V165H379V114Q379 73 379 66T385 54Q393 47 442 46H471V0H462ZM293 211V545L74 212L183 211H293Z"/><path id="MJX-12-TEX-N-39" d="M352 287Q304 211 232 211Q154 211 104 270T44 396Q42 412 42 436V444Q42 537 111 606Q171 666 243 666Q245 666 249 666T257 665H261Q273 665 286 663T323 651T370 619T413 560Q456 472 456 334Q456 194 396 97Q361 41 312 10T208 -22Q147 -22 108 7T68 93T121 149Q143 149 158 135T173 96Q173 78 164 65T148 49T135 44L131 43Q131 41 138 37T164 27T206 22H212Q272 22 313 86Q352 142 352 280V287ZM244 248Q292 248 321 297T351 430Q351 508 343 542Q341 552 337 562T323 588T293 615T246 625Q208 625 181 598Q160 576 154 546T147 441Q147 358 152 329T172 282Q197 248 244 248Z"/><path id="MJX-12-TEX-N-33" d="M127 463Q100 463 85 480T69 524Q69 579 117 622T233 665Q268 665 277 664Q351 652 390 611T430 522Q430 470 396 421T302 350L299 348Q299 347 308 345T337 336T375 315Q457 262 457 175Q457 96 395 37T238 -22Q158 -22 100 21T42 130Q42 158 60 175T105 193Q133 193 151 175T169 130Q169 119 166 110T159 94T148 82T136 74T126 70T118 67L114 66Q165 21 238 21Q293 21 321 74Q338 107 338 175V195Q338 290 274 322Q259 328 213 329L171 330L168 332Q166 335 166 348Q166 366 174 366Q202 366 232 371Q266 376 294 413T322 525V533Q322 590 287 612Q265 626 240 626Q208 626 181 615T143 592T132 580H135Q138 579 143 578T153 573T165 566T175 555T183 540T186 520Q186 498 172 481T127 463Z"/><path id="MJX-12-TEX-N-73" d="M295 316Q295 356 268 385T190 414Q154 414 128 401Q98 382 98 349Q97 344 98 336T114 312T157 287Q175 282 201 278T245 269T277 256Q294 248 310 236T342 195T359 133Q359 71 321 31T198 -10H190Q138 -10 94 26L86 19L77 10Q71 4 65 -1L54 -11H46H42Q39 -11 33 -5V74V132Q33 153 35 157T45 162H54Q66 162 70 158T75 146T82 119T101 77Q136 26 198 26Q295 26 295 104Q295 133 277 151Q257 175 194 187T111 210Q75 227 54 256T33 318Q33 357 50 384T93 424T143 442T187 447H198Q238 447 268 432L283 424L292 431Q302 440 314 448H322H326Q329 448 335 442V310L329 304H301Q295 310 295 316Z"/><path id="MJX-12-TEX-N-69" d="M69 609Q69 637 87 653T131 669Q154 667 171 652T188 609Q188 579 171 564T129 549Q104 549 87 564T69 609ZM247 0Q232 3 143 3Q132 3 106 3T56 1L34 0H26V46H42Q70 46 91 49Q100 53 102 60T104 102V205V293Q104 345 102 359T88 378Q74 385 41 385H30V408Q30 431 32 431L42 432Q52 433 70 434T106 436Q123 437 142 438T171 441T182 442H185V62Q190 52 197 50T232 46H255V0H247Z"/><path id="MJX-12-TEX-N-6E" d="M41 46H55Q94 46 102 60V68Q102 77 102 91T102 122T103 161T103 203Q103 234 103 269T102 328V351Q99 370 88 376T43 385H25V408Q25 431 27 431L37 432Q47 433 65 434T102 436Q119 437 138 438T167 441T178 442H181V402Q181 364 182 364T187 369T199 384T218 402T247 421T285 437Q305 442 336 442Q450 438 463 329Q464 322 464 190V104Q464 66 466 59T477 49Q498 46 526 46H542V0H534L510 1Q487 2 460 2T422 3Q319 3 310 0H302V46H318Q379 46 379 62Q380 64 380 200Q379 335 378 343Q372 371 358 385T334 402T308 404Q263 404 229 370Q202 343 195 315T187 232V168V108Q187 78 188 68T191 55T200 49Q221 46 249 46H265V0H257L234 1Q210 2 183 2T145 3Q42 3 33 0H25V46H41Z"/><path id="MJX-12-TEX-N-2061" d=""/><path id="MJX-12-TEX-N-7B" d="M434 -231Q434 -244 428 -250H410Q281 -250 230 -184Q225 -177 222 -172T217 -161T213 -148T211 -133T210 -111T209 -84T209 -47T209 0Q209 21 209 53Q208 142 204 153Q203 154 203 155Q189 191 153 211T82 231Q71 231 68 234T65 250T68 266T82 269Q116 269 152 289T203 345Q208 356 208 377T209 529V579Q209 634 215 656T244 698Q270 724 324 740Q361 748 377 749Q379 749 390 749T408 750H428Q434 744 434 732Q434 719 431 716Q429 713 415 713Q362 710 332 689T296 647Q291 634 291 499V417Q291 370 288 353T271 314Q240 271 184 255L170 250L184 245Q202 239 220 230T262 196T290 137Q291 131 291 1Q291 -134 296 -147Q306 -174 339 -192T415 -213Q429 -213 431 -216Q434 -219 434 -231Z"/><path id="MJX-12-TEX-N-32" d="M109 429Q82 429 66 447T50 491Q50 562 103 614T235 666Q326 666 387 610T449 465Q449 422 429 383T381 315T301 241Q265 210 201 149L142 93L218 92Q375 92 385 97Q392 99 409 186V189H449V186Q448 183 436 95T421 3V0H50V19V31Q50 38 56 46T86 81Q115 113 136 137Q145 147 170 174T204 211T233 244T261 278T284 308T305 340T320 369T333 401T340 431T343 464Q343 527 309 573T212 619Q179 619 154 602T119 569T109 550Q109 549 114 549Q132 549 151 535T170 489Q170 464 154 447T109 429Z"/><path id="MJX-12-TEX-I-1D70B" d="M132 -11Q98 -11 98 22V33L111 61Q186 219 220 334L228 358H196Q158 358 142 355T103 336Q92 329 81 318T62 297T53 285Q51 284 38 284Q19 284 19 294Q19 300 38 329T93 391T164 429Q171 431 389 431Q549 431 553 430Q573 423 573 402Q573 371 541 360Q535 358 472 358H408L405 341Q393 269 393 222Q393 170 402 129T421 65T431 37Q431 20 417 5T381 -10Q370 -10 363 -7T347 17T331 77Q330 86 330 121Q330 170 339 226T357 318T367 358H269L268 354Q268 351 249 275T206 114T175 17Q164 -11 132 -11Z"/><path id="MJX-12-TEX-N-28" d="M94 250Q94 319 104 381T127 488T164 576T202 643T244 695T277 729T302 750H315H319Q333 750 333 741Q333 738 316 720T275 667T226 581T184 443T167 250T184 58T225 -81T274 -167T316 -220T333 -241Q333 -250 318 -250H315H302L274 -226Q180 -141 137 -14T94 250Z"/><path id="MJX-12-TEX-I-1D457" d="M297 596Q297 627 318 644T361 661Q378 661 389 651T403 623Q403 595 384 576T340 557Q322 557 310 567T297 596ZM288 376Q288 405 262 405Q240 405 220 393T185 362T161 325T144 293L137 279Q135 278 121 278H107Q101 284 101 286T105 299Q126 348 164 391T252 441Q253 441 260 441T272 442Q296 441 316 432Q341 418 354 401T367 348V332L318 133Q267 -67 264 -75Q246 -125 194 -164T75 -204Q25 -204 7 -183T-12 -137Q-12 -110 7 -91T53 -71Q70 -71 82 -81T95 -112Q95 -148 63 -167Q69 -168 77 -168Q111 -168 139 -140T182 -74L193 -32Q204 11 219 72T251 197T278 308T289 365Q289 372 288 376Z"/><path id="MJX-12-TEX-N-2212" d="M84 237T84 250T98 270H679Q694 262 694 250T679 230H98Q84 237 84 250Z"/><path id="MJX-12-TEX-N-38" d="M70 417T70 494T124 618T248 666Q319 666 374 624T429 515Q429 485 418 459T392 417T361 389T335 371T324 363L338 354Q352 344 366 334T382 323Q457 264 457 174Q457 95 399 37T249 -22Q159 -22 101 29T43 155Q43 263 172 335L154 348Q133 361 127 368Q70 417 70 494ZM286 386L292 390Q298 394 301 396T311 403T323 413T334 425T345 438T355 454T364 471T369 491T371 513Q371 556 342 586T275 624Q268 625 242 625Q201 625 165 599T128 534Q128 511 141 492T167 463T217 431Q224 426 228 424L286 386ZM250 21Q308 21 350 55T392 137Q392 154 387 169T375 194T353 216T330 234T301 253T274 270Q260 279 244 289T218 306L210 311Q204 311 181 294T133 239T107 157Q107 98 150 60T250 21Z"/><path id="MJX-12-TEX-N-31" d="M213 578L200 573Q186 568 160 563T102 556H83V602H102Q149 604 189 617T245 641T273 663Q275 666 285 666Q294 666 302 660V361L303 61Q310 54 315 52T339 48T401 46H427V0H416Q395 3 257 3Q121 3 100 0H88V46H114Q136 46 152 46T177 47T193 50T201 52T207 57T213 61V578Z"/><path id="MJX-12-TEX-N-29" d="M60 749L64 750Q69 750 74 750H86L114 726Q208 641 251 514T294 250Q294 182 284 119T261 12T224 -76T186 -143T145 -194T113 -227T90 -246Q87 -249 86 -250H74Q66 -250 63 -250T58 -247T55 -238Q56 -237 66 -225Q221 -64 221 250T66 725Q56 737 55 738Q55 746 60 749Z"/><path id="MJX-12-TEX-N-2F" d="M423 750Q432 750 438 744T444 730Q444 725 271 248T92 -240Q85 -250 75 -250Q68 -250 62 -245T56 -231Q56 -221 230 257T407 740Q411 750 423 750Z"/><path id="MJX-12-TEX-N-36" d="M42 313Q42 476 123 571T303 666Q372 666 402 630T432 550Q432 525 418 510T379 495Q356 495 341 509T326 548Q326 592 373 601Q351 623 311 626Q240 626 194 566Q147 500 147 364L148 360Q153 366 156 373Q197 433 263 433H267Q313 433 348 414Q372 400 396 374T435 317Q456 268 456 210V192Q456 169 451 149Q440 90 387 34T253 -22Q225 -22 199 -14T143 16T92 75T56 172T42 313ZM257 397Q227 397 205 380T171 335T154 278T148 216Q148 133 160 97T198 39Q222 21 251 21Q302 21 329 59Q342 77 347 104T352 209Q352 289 347 316T329 361Q302 397 257 397Z"/><path id="MJX-12-TEX-N-35" d="M164 157Q164 133 148 117T109 101H102Q148 22 224 22Q294 22 326 82Q345 115 345 210Q345 313 318 349Q292 382 260 382H254Q176 382 136 314Q132 307 129 306T114 304Q97 304 95 310Q93 314 93 485V614Q93 664 98 664Q100 666 102 666Q103 666 123 658T178 642T253 634Q324 634 389 662Q397 666 402 666Q410 666 410 648V635Q328 538 205 538Q174 538 149 544L139 546V374Q158 388 169 396T205 412T256 420Q337 420 393 355T449 201Q449 109 385 44T229 -22Q148 -22 99 32T50 154Q50 178 61 192T84 210T107 214Q132 214 148 197T164 157Z"/><path id="MJX-12-TEX-N-7D" d="M65 731Q65 745 68 747T88 750Q171 750 216 725T279 670Q288 649 289 635T291 501Q292 362 293 357Q306 312 345 291T417 269Q428 269 431 266T434 250T431 234T417 231Q380 231 345 210T298 157Q293 143 292 121T291 -28V-79Q291 -134 285 -156T256 -198Q202 -250 89 -250Q71 -250 68 -247T65 -230Q65 -224 65 -223T66 -218T69 -214T77 -213Q91 -213 108 -210T146 -200T183 -177T207 -139Q208 -134 209 3L210 139Q223 196 280 230Q315 247 330 250Q305 257 280 270Q225 304 212 352L210 362L209 498Q208 635 207 640Q195 680 154 696T77 713Q68 713 67 716T65 731Z"/><path id="MJX-12-TEX-N-2C" d="M78 35T78 60T94 103T137 121Q165 121 187 96T210 8Q210 -27 201 -60T180 -117T154 -158T130 -185T117 -194Q113 -194 104 -185T95 -172Q95 -168 106 -156T131 -126T157 -76T173 -3V9L172 8Q170 7 167 6T161 3T152 1T140 0Q113 0 96 17Z"/><path id="MJX-12-TEX-I-2113" d="M345 104T349 104T361 95T369 80T352 59Q268 -20 206 -20Q170 -20 146 3T113 53T99 104L94 129Q94 130 79 116T48 86T28 70Q22 70 15 79T7 94Q7 98 12 103T58 147L91 179V185Q91 186 91 191T92 200Q92 282 128 400T223 612T336 705Q397 705 397 636V627Q397 453 194 233Q185 223 180 218T174 211T171 208T165 201L163 186Q159 142 159 123Q159 17 208 17Q228 17 253 30T293 56T335 94Q345 104 349 104ZM360 634Q360 655 354 661T336 668Q328 668 322 666T302 645T272 592Q252 547 229 467T192 330L179 273Q179 272 186 280T204 300T221 322Q327 453 355 590Q360 612 360 634Z"/><path id="MJX-12-TEX-N-61" d="M137 305T115 305T78 320T63 359Q63 394 97 421T218 448Q291 448 336 416T396 340Q401 326 401 309T402 194V124Q402 76 407 58T428 40Q443 40 448 56T453 109V145H493V106Q492 66 490 59Q481 29 455 12T400 -6T353 12T329 54V58L327 55Q325 52 322 49T314 40T302 29T287 17T269 6T247 -2T221 -8T190 -11Q130 -11 82 20T34 107Q34 128 41 147T68 188T116 225T194 253T304 268H318V290Q318 324 312 340Q290 411 215 411Q197 411 181 410T156 406T148 403Q170 388 170 359Q170 334 154 320ZM126 106Q126 75 150 51T209 26Q247 26 276 49T315 109Q317 116 318 175Q318 233 317 233Q309 233 296 232T251 223T193 203T147 166T126 106Z"/><path id="MJX-12-TEX-N-72" d="M36 46H50Q89 46 97 60V68Q97 77 97 91T98 122T98 161T98 203Q98 234 98 269T98 328L97 351Q94 370 83 376T38 385H20V408Q20 431 22 431L32 432Q42 433 60 434T96 436Q112 437 131 438T160 441T171 442H174V373Q213 441 271 441H277Q322 441 343 419T364 373Q364 352 351 337T313 322Q288 322 276 338T263 372Q263 381 265 388T270 400T273 405Q271 407 250 401Q234 393 226 386Q179 341 179 207V154Q179 141 179 127T179 101T180 81T180 66V61Q181 59 183 57T188 54T193 51T200 49T207 48T216 47T225 47T235 46T245 46H276V0H267Q249 3 140 3Q37 3 28 0H20V46H36Z"/><path id="MJX-12-TEX-N-63" d="M370 305T349 305T313 320T297 358Q297 381 312 396Q317 401 317 402T307 404Q281 408 258 408Q209 408 178 376Q131 329 131 219Q131 137 162 90Q203 29 272 29Q313 29 338 55T374 117Q376 125 379 127T395 129H409Q415 123 415 120Q415 116 411 104T395 71T366 33T318 2T249 -11Q163 -11 99 53T34 214Q34 318 99 383T250 448T370 421T404 357Q404 334 387 320Z"/><path id="MJX-12-TEX-N-6F" d="M28 214Q28 309 93 378T250 448Q340 448 405 380T471 215Q471 120 407 55T250 -10Q153 -10 91 57T28 214ZM250 30Q372 30 372 193V225V250Q372 272 371 288T364 326T348 362T317 390T268 410Q263 411 252 411Q222 411 195 399Q152 377 139 338T126 246V226Q126 130 145 91Q177 30 250 30Z"/><path id="MJX-12-TEX-N-5B" d="M118 -250V750H255V710H158V-210H255V-250H118Z"/><path id="MJX-12-TEX-N-6C" d="M42 46H56Q95 46 103 60V68Q103 77 103 91T103 124T104 167T104 217T104 272T104 329Q104 366 104 407T104 482T104 542T103 586T103 603Q100 622 89 628T44 637H26V660Q26 683 28 683L38 684Q48 685 67 686T104 688Q121 689 141 690T171 693T182 694H185V379Q185 62 186 60Q190 52 198 49Q219 46 247 46H263V0H255L232 1Q209 2 183 2T145 3T107 3T57 1L34 0H26V46H42Z"/><path id="MJX-12-TEX-N-70" d="M36 -148H50Q89 -148 97 -134V-126Q97 -119 97 -107T97 -77T98 -38T98 6T98 55T98 106Q98 140 98 177T98 243T98 296T97 335T97 351Q94 370 83 376T38 385H20V408Q20 431 22 431L32 432Q42 433 61 434T98 436Q115 437 135 438T165 441T176 442H179V416L180 390L188 397Q247 441 326 441Q407 441 464 377T522 216Q522 115 457 52T310 -11Q242 -11 190 33L182 40V-45V-101Q182 -128 184 -134T195 -145Q216 -148 244 -148H260V-194H252L228 -193Q205 -192 178 -192T140 -191Q37 -191 28 -194H20V-148H36ZM424 218Q424 292 390 347T305 402Q234 402 182 337V98Q222 26 294 26Q345 26 384 80T424 218Z"/><path id="MJX-12-TEX-N-74" d="M27 422Q80 426 109 478T141 600V615H181V431H316V385H181V241Q182 116 182 100T189 68Q203 29 238 29Q282 29 292 100Q293 108 293 146V181H333V146V134Q333 57 291 17Q264 -10 221 -10Q187 -10 162 2T124 33T105 68T98 100Q97 107 97 248V385H18V422H27Z"/><path id="MJX-12-TEX-I-1D719" d="M409 688Q413 694 421 694H429H442Q448 688 448 686Q448 679 418 563Q411 535 404 504T392 458L388 442Q388 441 397 441T429 435T477 418Q521 397 550 357T579 260T548 151T471 65T374 11T279 -10H275L251 -105Q245 -128 238 -160Q230 -192 227 -198T215 -205H209Q189 -205 189 -198Q189 -193 211 -103L234 -11Q234 -10 226 -10Q221 -10 206 -8T161 6T107 36T62 89T43 171Q43 231 76 284T157 370T254 422T342 441Q347 441 348 445L378 567Q409 686 409 688ZM122 150Q122 116 134 91T167 53T203 35T237 27H244L337 404Q333 404 326 403T297 395T255 379T211 350T170 304Q152 276 137 237Q122 191 122 150ZM500 282Q500 320 484 347T444 385T405 400T381 404H378L332 217L284 29Q284 27 285 27Q293 27 317 33T357 47Q400 66 431 100T475 170T494 234T500 282Z"/><path id="MJX-12-TEX-N-5D" d="M22 710V750H159V-250H22V-210H119V710H22Z"/><path id="MJX-12-TEX-I-1D45D" d="M23 287Q24 290 25 295T30 317T40 348T55 381T75 411T101 433T134 442Q209 442 230 378L240 387Q302 442 358 442Q423 442 460 395T497 281Q497 173 421 82T249 -10Q227 -10 210 -4Q199 1 187 11T168 28L161 36Q160 35 139 -51T118 -138Q118 -144 126 -145T163 -148H188Q194 -155 194 -157T191 -175Q188 -187 185 -190T172 -194Q170 -194 161 -194T127 -193T65 -192Q-5 -192 -24 -194H-32Q-39 -187 -39 -183Q-37 -156 -26 -148H-6Q28 -147 33 -136Q36 -130 94 103T155 350Q156 355 156 364Q156 405 131 405Q109 405 94 377T71 316T59 280Q57 278 43 278H29Q23 284 23 287ZM178 102Q200 26 252 26Q282 26 310 49T356 107Q374 141 392 215T411 325V331Q411 405 350 405Q339 405 328 402T306 393T286 380T269 365T254 350T243 336T235 326L232 322Q232 321 229 308T218 264T204 212Q178 106 178 102Z"/></defs><g stroke="currentColor" fill="currentColor" stroke-width="0" transform="scale(1,-1)"><g data-mml-node="math"><g data-mml-node="mtable"><g data-mml-node="mtr" transform="translate(0,1825)"><g data-mml-node="mtd"/><g data-mml-node="mtd"><g data-mml-node="msub"><g data-mml-node="mi"><use data-c="1D6FF" xlink:href="#MJX-12-TEX-I-1D6FF"/></g><g data-mml-node="mi" transform="translate(477,-150) scale(0.707)"><use data-c="1D451" xlink:href="#MJX-12-TEX-I-1D451"/></g></g><g data-mml-node="mo" transform="translate(1172.5,0)"><use data-c="3D" xlink:href="#MJX-12-TEX-N-3D"/></g><g data-mml-node="mn" transform="translate(2228.3,0)"><use data-c="30" xlink:href="#MJX-12-TEX-N-30"/><use data-c="2E" xlink:href="#MJX-12-TEX-N-2E" transform="translate(500,0)"/><use data-c="34" xlink:href="#MJX-12-TEX-N-34" transform="translate(778,0)"/><use data-c="30" xlink:href="#MJX-12-TEX-N-30" transform="translate(1278,0)"/><use data-c="39" xlink:href="#MJX-12-TEX-N-39" transform="translate(1778,0)"/><use data-c="33" xlink:href="#MJX-12-TEX-N-33" transform="translate(2278,0)"/></g><g data-mml-node="mi" transform="translate(5172.9,0)"><use data-c="73" xlink:href="#MJX-12-TEX-N-73"/><use data-c="69" xlink:href="#MJX-12-TEX-N-69" transform="translate(394,0)"/><use data-c="6E" xlink:href="#MJX-12-TEX-N-6E" transform="translate(672,0)"/></g><g data-mml-node="mo" transform="translate(6400.9,0)"><use data-c="2061" xlink:href="#MJX-12-TEX-N-2061"/></g><g data-mml-node="mo" transform="translate(6400.9,0)"><use data-c="7B" xlink:href="#MJX-12-TEX-N-7B"/></g><g data-mml-node="mn" transform="translate(6900.9,0)"><use data-c="32" xlink:href="#MJX-12-TEX-N-32"/></g><g data-mml-node="mi" transform="translate(7400.9,0)"><use data-c="1D70B" xlink:href="#MJX-12-TEX-I-1D70B"/></g><g data-mml-node="mo" transform="translate(7970.9,0)"><use data-c="28" xlink:href="#MJX-12-TEX-N-28"/></g><g data-mml-node="msub" transform="translate(8359.9,0)"><g data-mml-node="mi"><use data-c="1D457" xlink:href="#MJX-12-TEX-I-1D457"/></g><g data-mml-node="mi" transform="translate(445,-150) scale(0.707)"><use data-c="1D451" xlink:href="#MJX-12-TEX-I-1D451"/></g></g><g data-mml-node="mo" transform="translate(9444.8,0)"><use data-c="2212" xlink:href="#MJX-12-TEX-N-2212"/></g><g data-mml-node="mn" transform="translate(10445.1,0)"><use data-c="38" xlink:href="#MJX-12-TEX-N-38"/><use data-c="31" xlink:href="#MJX-12-TEX-N-31" transform="translate(500,0)"/></g><g data-mml-node="mo" transform="translate(11445.1,0)"><use data-c="29" xlink:href="#MJX-12-TEX-N-29"/></g><g data-mml-node="TeXAtom" data-mjx-texclass="ORD" transform="translate(11834.1,0)"><g data-mml-node="mo"><use data-c="2F" xlink:href="#MJX-12-TEX-N-2F"/></g></g><g data-mml-node="mn" transform="translate(12334.1,0)"><use data-c="33" xlink:href="#MJX-12-TEX-N-33"/><use data-c="36" xlink:href="#MJX-12-TEX-N-36" transform="translate(500,0)"/><use data-c="35" xlink:href="#MJX-12-TEX-N-35" transform="translate(1000,0)"/></g><g data-mml-node="mo" transform="translate(13834.1,0)"><use data-c="7D" xlink:href="#MJX-12-TEX-N-7D"/></g><g data-mml-node="mo" transform="translate(14334.1,0)"><use data-c="2C" xlink:href="#MJX-12-TEX-N-2C"/></g></g></g><g data-mml-node="mtr" transform="translate(0,-78)"><g data-mml-node="mtd"/><g data-mml-node="mtd"><g data-mml-node="msub"><g data-mml-node="mi"><use data-c="2113" xlink:href="#MJX-12-TEX-I-2113"/></g><g data-mml-node="mi" transform="translate(450,-150) scale(0.707)"><use data-c="1D451" xlink:href="#MJX-12-TEX-I-1D451"/></g></g><g data-mml-node="mo" transform="translate(1145.5,0)"><use data-c="3D" xlink:href="#MJX-12-TEX-N-3D"/></g><g data-mml-node="TeXAtom" data-mjx-texclass="ORD" transform="translate(2201.3,0)"><g data-mml-node="mfrac"><g data-mml-node="mn" transform="translate(220,676)"><use data-c="32" xlink:href="#MJX-12-TEX-N-32"/><use data-c="34" xlink:href="#MJX-12-TEX-N-34" transform="translate(500,0)"/></g><g data-mml-node="mi" transform="translate(435,-686)"><use data-c="1D70B" xlink:href="#MJX-12-TEX-I-1D70B"/></g><rect width="1200" height="60" x="120" y="220"/></g></g><g data-mml-node="mi" transform="translate(3807.9,0)"><use data-c="61" xlink:href="#MJX-12-TEX-N-61"/><use data-c="72" xlink:href="#MJX-12-TEX-N-72" transform="translate(500,0)"/><use data-c="63" xlink:href="#MJX-12-TEX-N-63" transform="translate(892,0)"/><use data-c="63" xlink:href="#MJX-12-TEX-N-63" transform="translate(1336,0)"/><use data-c="6F" xlink:href="#MJX-12-TEX-N-6F" transform="translate(1780,0)"/><use data-c="73" xlink:href="#MJX-12-TEX-N-73" transform="translate(2280,0)"/></g><g data-mml-node="mstyle" transform="translate(6481.9,0)"><g data-mml-node="mspace"/></g><g data-mml-node="mrow" transform="translate(6481.6,0)"><g data-mml-node="mo"><use data-c="5B" xlink:href="#MJX-12-TEX-N-5B"/></g><g data-mml-node="mi" transform="translate(278,0)"><use data-c="63" xlink:href="#MJX-12-TEX-N-63"/><use data-c="6C" xlink:href="#MJX-12-TEX-N-6C" transform="translate(444,0)"/><use data-c="69" xlink:href="#MJX-12-TEX-N-69" transform="translate(722,0)"/><use data-c="70" xlink:href="#MJX-12-TEX-N-70" transform="translate(1000,0)"/></g><g data-mml-node="mo" transform="translate(1834,0)"><use data-c="7B" xlink:href="#MJX-12-TEX-N-7B"/></g><g data-mml-node="mo" transform="translate(2334,0)"><use data-c="2212" xlink:href="#MJX-12-TEX-N-2212"/></g><g data-mml-node="mi" transform="translate(3278.7,0)"><use data-c="74" xlink:href="#MJX-12-TEX-N-74"/><use data-c="61" xlink:href="#MJX-12-TEX-N-61" transform="translate(389,0)"/><use data-c="6E" xlink:href="#MJX-12-TEX-N-6E" transform="translate(889,0)"/></g><g data-mml-node="mo" transform="translate(4723.7,0)"><use data-c="2061" xlink:href="#MJX-12-TEX-N-2061"/></g><g data-mml-node="mi" transform="translate(4890.3,0)"><use data-c="1D719" xlink:href="#MJX-12-TEX-I-1D719"/></g><g data-mml-node="mi" transform="translate(5653,0)"><use data-c="74" xlink:href="#MJX-12-TEX-N-74"/><use data-c="61" xlink:href="#MJX-12-TEX-N-61" transform="translate(389,0)"/><use data-c="6E" xlink:href="#MJX-12-TEX-N-6E" transform="translate(889,0)"/></g><g data-mml-node="mo" transform="translate(7098,0)"><use data-c="2061" xlink:href="#MJX-12-TEX-N-2061"/></g><g data-mml-node="msub" transform="translate(7264.7,0)"><g data-mml-node="mi"><use data-c="1D6FF" xlink:href="#MJX-12-TEX-I-1D6FF"/></g><g data-mml-node="mi" transform="translate(477,-150) scale(0.707)"><use data-c="1D451" xlink:href="#MJX-12-TEX-I-1D451"/></g></g><g data-mml-node="mo" transform="translate(8159.4,0)"><use data-c="2C" xlink:href="#MJX-12-TEX-N-2C"/></g><g data-mml-node="mo" transform="translate(8604,0)"><use data-c="2212" xlink:href="#MJX-12-TEX-N-2212"/></g><g data-mml-node="mn" transform="translate(9382,0)"><use data-c="31" xlink:href="#MJX-12-TEX-N-31"/></g><g data-mml-node="mo" transform="translate(9882,0)"><use data-c="2C" xlink:href="#MJX-12-TEX-N-2C"/></g><g data-mml-node="mn" transform="translate(10326.7,0)"><use data-c="31" xlink:href="#MJX-12-TEX-N-31"/></g><g data-mml-node="mo" transform="translate(10826.7,0)"><use data-c="7D" xlink:href="#MJX-12-TEX-N-7D"/></g><g data-mml-node="mo" transform="translate(11326.7,0)"><use data-c="5D" xlink:href="#MJX-12-TEX-N-5D"/></g></g><g data-mml-node="mo" transform="translate(18086.3,0)"><use data-c="2C" xlink:href="#MJX-12-TEX-N-2C"/></g></g></g><g data-mml-node="mtr" transform="translate(0,-1825)"><g data-mml-node="mtd"/><g data-mml-node="mtd"><g data-mml-node="msub"><g data-mml-node="mi"><use data-c="1D45D" xlink:href="#MJX-12-TEX-I-1D45D"/></g><g data-mml-node="mi" transform="translate(536,-150) scale(0.707)"><use data-c="1D451" xlink:href="#MJX-12-TEX-I-1D451"/></g></g><g data-mml-node="mo" transform="translate(1231.5,0)"><use data-c="3D" xlink:href="#MJX-12-TEX-N-3D"/></g><g data-mml-node="mi" transform="translate(2287.3,0)"><use data-c="63" xlink:href="#MJX-12-TEX-N-63"/><use data-c="6C" xlink:href="#MJX-12-TEX-N-6C" transform="translate(444,0)"/><use data-c="69" xlink:href="#MJX-12-TEX-N-69" transform="translate(722,0)"/><use data-c="70" xlink:href="#MJX-12-TEX-N-70" transform="translate(1000,0)"/></g><g data-mml-node="mo" transform="translate(3843.3,0)"><use data-c="7B" xlink:href="#MJX-12-TEX-N-7B"/></g><g data-mml-node="mn" transform="translate(4343.3,0)"><use data-c="31" xlink:href="#MJX-12-TEX-N-31"/></g><g data-mml-node="mo" transform="translate(5065.5,0)"><use data-c="2212" xlink:href="#MJX-12-TEX-N-2212"/></g><g data-mml-node="mn" transform="translate(6065.7,0)"><use data-c="30" xlink:href="#MJX-12-TEX-N-30"/><use data-c="2E" xlink:href="#MJX-12-TEX-N-2E" transform="translate(500,0)"/><use data-c="30" xlink:href="#MJX-12-TEX-N-30" transform="translate(778,0)"/><use data-c="39" xlink:href="#MJX-12-TEX-N-39" transform="translate(1278,0)"/></g><g data-mml-node="mo" transform="translate(7843.7,0)"><use data-c="28" xlink:href="#MJX-12-TEX-N-28"/></g><g data-mml-node="mn" transform="translate(8232.7,0)"><use data-c="31" xlink:href="#MJX-12-TEX-N-31"/><use data-c="36" xlink:href="#MJX-12-TEX-N-36" transform="translate(500,0)"/></g><g data-mml-node="mo" transform="translate(9454.9,0)"><use data-c="2212" xlink:href="#MJX-12-TEX-N-2212"/></g><g data-mml-node="msub" transform="translate(10455.1,0)"><g data-mml-node="mi"><use data-c="2113" xlink:href="#MJX-12-TEX-I-2113"/></g><g data-mml-node="mi" transform="translate(450,-150) scale(0.707)"><use data-c="1D451" xlink:href="#MJX-12-TEX-I-1D451"/></g></g><g data-mml-node="mo" transform="translate(11322.8,0)"><use data-c="29" xlink:href="#MJX-12-TEX-N-29"/></g><g data-mml-node="mo" transform="translate(11711.8,0)"><use data-c="2C" xlink:href="#MJX-12-TEX-N-2C"/></g><g data-mml-node="mn" transform="translate(12156.5,0)"><use data-c="30" xlink:href="#MJX-12-TEX-N-30"/></g><g data-mml-node="mo" transform="translate(12656.5,0)"><use data-c="2C" xlink:href="#MJX-12-TEX-N-2C"/></g><g data-mml-node="mn" transform="translate(13101.2,0)"><use data-c="31" xlink:href="#MJX-12-TEX-N-31"/></g><g data-mml-node="mo" transform="translate(13601.2,0)"><use data-c="7D" xlink:href="#MJX-12-TEX-N-7D"/></g><g data-mml-node="mo" transform="translate(14101.2,0)"><use data-c="2E" xlink:href="#MJX-12-TEX-N-2E"/></g></g></g></g></g></g></svg>