<svg xmlns="http://www.w3.org/2000/svg" xmlns:xlink="http://www.w3.org/1999/xlink" style="vertical-align: -0.566ex;" width="683.2056" height="95.92" role="img" focusable="false" viewBox="0 -840 7763.7 1090"><defs><path id="MJX-157-TEX-I-1D713" d="M161 441Q202 441 226 417T250 358Q250 338 218 252T187 127Q190 85 214 61Q235 43 257 37Q275 29 288 29H289L371 360Q455 691 456 692Q459 694 472 694Q492 694 492 687Q492 678 411 356Q329 28 329 27T335 26Q421 26 498 114T576 278Q576 302 568 319T550 343T532 361T524 384Q524 405 541 424T583 443Q602 443 618 425T634 366Q634 337 623 288T605 220Q573 125 492 57T329 -11H319L296 -104Q272 -198 272 -199Q270 -205 252 -205H239Q233 -199 233 -197Q233 -192 256 -102T279 -9Q272 -8 265 -8Q106 14 106 139Q106 174 139 264T173 379Q173 380 173 381Q173 390 173 393T169 400T158 404H154Q131 404 112 385T82 344T65 302T57 280Q55 278 41 278H27Q21 284 21 287Q21 299 34 333T82 404T161 441Z"/><path id="MJX-157-TEX-I-1D45F" d="M21 287Q22 290 23 295T28 317T38 348T53 381T73 411T99 433T132 442Q161 442 183 430T214 408T225 388Q227 382 228 382T236 389Q284 441 347 441H350Q398 441 422 400Q430 381 430 363Q430 333 417 315T391 292T366 288Q346 288 334 299T322 328Q322 376 378 392Q356 405 342 405Q286 405 239 331Q229 315 224 298T190 165Q156 25 151 16Q138 -11 108 -11Q95 -11 87 -5T76 7T74 17Q74 30 114 189T154 366Q154 405 128 405Q107 405 92 377T68 316T57 280Q55 278 41 278H27Q21 284 21 287Z"/><path id="MJX-157-TEX-N-3D" d="M56 347Q56 360 70 367H707Q722 359 722 347Q722 336 708 328L390 327H72Q56 332 56 347ZM56 153Q56 168 72 173H708Q722 163 722 153Q722 140 707 133H70Q56 140 56 153Z"/><path id="MJX-157-TEX-N-28" d="M94 250Q94 319 104 381T127 488T164 576T202 643T244 695T277 729T302 750H315H319Q333 750 333 741Q333 738 316 720T275 667T226 581T184 443T167 250T184 58T225 -81T274 -167T316 -220T333 -241Q333 -250 318 -250H315H302L274 -226Q180 -141 137 -14T94 250Z"/><path id="MJX-157-TEX-I-1D465" d="M52 289Q59 331 106 386T222 442Q257 442 286 424T329 379Q371 442 430 442Q467 442 494 420T522 361Q522 332 508 314T481 292T458 288Q439 288 427 299T415 328Q415 374 465 391Q454 404 425 404Q412 404 406 402Q368 386 350 336Q290 115 290 78Q290 50 306 38T341 26Q378 26 414 59T463 140Q466 150 469 151T485 153H489Q504 153 504 145Q504 144 502 134Q486 77 440 33T333 -11Q263 -11 227 52Q186 -10 133 -10H127Q78 -10 57 16T35 71Q35 103 54 123T99 143Q142 143 142 101Q142 81 130 66T107 46T94 41L91 40Q91 39 97 36T113 29T132 26Q168 26 194 71Q203 87 217 139T245 247T261 313Q266 340 266 352Q266 380 251 392T217 404Q177 404 142 372T93 290Q91 281 88 280T72 278H58Q52 284 52 289Z"/><path id="MJX-157-TEX-N-2212" d="M84 237T84 250T98 270H679Q694 262 694 250T679 230H98Q84 237 84 250Z"/><path id="MJX-157-TEX-I-1D707" d="M58 -216Q44 -216 34 -208T23 -186Q23 -176 96 116T173 414Q186 442 219 442Q231 441 239 435T249 423T251 413Q251 401 220 279T187 142Q185 131 185 107V99Q185 26 252 26Q261 26 270 27T287 31T302 38T315 45T327 55T338 65T348 77T356 88T365 100L372 110L408 253Q444 395 448 404Q461 431 491 431Q504 431 512 424T523 412T525 402L449 84Q448 79 448 68Q448 43 455 35T476 26Q485 27 496 35Q517 55 537 131Q543 151 547 152Q549 153 557 153H561Q580 153 580 144Q580 138 575 117T555 63T523 13Q510 0 491 -8Q483 -10 467 -10Q446 -10 429 -4T402 11T385 29T376 44T374 51L368 45Q362 39 350 30T324 12T288 -4T246 -11Q199 -11 153 12L129 -85Q108 -167 104 -180T92 -202Q76 -216 58 -216Z"/><path id="MJX-157-TEX-SO-2C6" d="M279 669Q273 669 142 610T9 551L0 569Q-8 585 -8 587Q-8 588 -7 588L12 598Q30 608 66 628T136 666L277 744L564 587L555 569Q549 556 547 554T544 552Q539 555 410 612T279 669Z"/><path id="MJX-157-TEX-I-1D467" d="M347 338Q337 338 294 349T231 360Q211 360 197 356T174 346T162 335T155 324L153 320Q150 317 138 317Q117 317 117 325Q117 330 120 339Q133 378 163 406T229 440Q241 442 246 442Q271 442 291 425T329 392T367 375Q389 375 411 408T434 441Q435 442 449 442H462Q468 436 468 434Q468 430 463 420T449 399T432 377T418 358L411 349Q368 298 275 214T160 106L148 94L163 93Q185 93 227 82T290 71Q328 71 360 90T402 140Q406 149 409 151T424 153Q443 153 443 143Q443 138 442 134Q425 72 376 31T278 -11Q252 -11 232 6T193 40T155 57Q111 57 76 -3Q70 -11 59 -11H54H41Q35 -5 35 -2Q35 13 93 84Q132 129 225 214T340 322Q352 338 347 338Z"/><path id="MJX-157-TEX-N-29" d="M60 749L64 750Q69 750 74 750H86L114 726Q208 641 251 514T294 250Q294 182 284 119T261 12T224 -76T186 -143T145 -194T113 -227T90 -246Q87 -249 86 -250H74Q66 -250 63 -250T58 -247T55 -238Q56 -237 66 -225Q221 -64 221 250T66 725Q56 737 55 738Q55 746 60 749Z"/><path id="MJX-157-TEX-N-2F" d="M423 750Q432 750 438 744T444 730Q444 725 271 248T92 -240Q85 -250 75 -250Q68 -250 62 -245T56 -231Q56 -221 230 257T407 740Q411 750 423 750Z"/><path id="MJX-157-TEX-I-1D450" d="M34 159Q34 268 120 355T306 442Q362 442 394 418T427 355Q427 326 408 306T360 285Q341 285 330 295T319 325T330 359T352 380T366 386H367Q367 388 361 392T340 400T306 404Q276 404 249 390Q228 381 206 359Q162 315 142 235T121 119Q121 73 147 50Q169 26 205 26H209Q321 26 394 111Q403 121 406 121Q410 121 419 112T429 98T420 83T391 55T346 25T282 0T202 -11Q127 -11 81 37T34 159Z"/><path id="MJX-157-TEX-N-2C6" d="M112 560L249 694L257 686Q387 562 387 560L361 531Q359 532 303 581L250 627L195 580Q182 569 169 557T148 538L140 532Q138 530 125 546L112 560Z"/></defs><g stroke="currentColor" fill="currentColor" stroke-width="0" transform="scale(1,-1)"><g data-mml-node="math"><g data-mml-node="msub"><g data-mml-node="mi"><use data-c="1D713" xlink:href="#MJX-157-TEX-I-1D713"/></g><g data-mml-node="mi" transform="translate(684,-150) scale(0.707)"><use data-c="1D45F" xlink:href="#MJX-157-TEX-I-1D45F"/></g></g><g data-mml-node="mo" transform="translate(1330.7,0)"><use data-c="3D" xlink:href="#MJX-157-TEX-N-3D"/></g><g data-mml-node="mo" transform="translate(2386.5,0)"><use data-c="28" xlink:href="#MJX-157-TEX-N-28"/></g><g data-mml-node="msub" transform="translate(2775.5,0)"><g data-mml-node="mi"><use data-c="1D465" xlink:href="#MJX-157-TEX-I-1D465"/></g><g data-mml-node="mi" transform="translate(605,-150) scale(0.707)"><use data-c="1D45F" xlink:href="#MJX-157-TEX-I-1D45F"/></g></g><g data-mml-node="mo" transform="translate(3971.6,0)"><use data-c="2212" xlink:href="#MJX-157-TEX-N-2212"/></g><g data-mml-node="TeXAtom" data-mjx-texclass="ORD" transform="translate(4971.8,0)"><g data-mml-node="mover"><g data-mml-node="mi"><use data-c="1D707" xlink:href="#MJX-157-TEX-I-1D707"/></g><g data-mml-node="mo" transform="translate(329.3,-4) translate(-278 0)"><use data-c="2C6" xlink:href="#MJX-157-TEX-SO-2C6"/></g></g></g><g data-mml-node="msub" transform="translate(5574.8,0)"><g data-mml-node="mi"><use data-c="1D467" xlink:href="#MJX-157-TEX-I-1D467"/></g><g data-mml-node="mi" transform="translate(498,-150) scale(0.707)"><use data-c="1D45F" xlink:href="#MJX-157-TEX-I-1D45F"/></g></g><g data-mml-node="mo" transform="translate(6441.7,0)"><use data-c="29" xlink:href="#MJX-157-TEX-N-29"/></g><g data-mml-node="TeXAtom" data-mjx-texclass="ORD" transform="translate(6830.7,0)"><g data-mml-node="mo"><use data-c="2F" xlink:href="#MJX-157-TEX-N-2F"/></g></g><g data-mml-node="TeXAtom" data-mjx-texclass="ORD" transform="translate(7330.7,0)"><g data-mml-node="mover"><g data-mml-node="mi"><use data-c="1D450" xlink:href="#MJX-157-TEX-I-1D450"/></g><g data-mml-node="mo" transform="translate(272.1,16) translate(-250 0)"><use data-c="2C6" xlink:href="#MJX-157-TEX-N-2C6"/></g></g></g></g></g></svg>